<svg width="178" height="38" viewBox="0 0 178 38" fill="none" xmlns="http://www.w3.org/2000/svg">
<path d="M22.76 24H9.76L7.28 30H0.64L13.12 2H19.52L32.04 30H25.24L22.76 24ZM20.72 19.08L16.28 8.36L11.84 19.08H20.72ZM47.065 2C49.545 2 51.6917 2.41333 53.505 3.24C55.345 4.06667 56.7583 5.24 57.745 6.76C58.7317 8.28 59.225 10.08 59.225 12.16C59.225 14.2133 58.7317 16.0133 57.745 17.56C56.7583 19.08 55.345 20.2533 53.505 21.08C51.6917 21.88 49.545 22.28 47.065 22.28H41.425V30H34.945V2H47.065ZM46.705 17C48.6517 17 50.1317 16.5867 51.145 15.76C52.1583 14.9067 52.665 13.7067 52.665 12.16C52.665 10.5867 52.1583 9.38667 51.145 8.56C50.1317 7.70667 48.6517 7.28 46.705 7.28H41.425V17H46.705ZM75.9713 2C78.4513 2 80.5979 2.41333 82.4113 3.24C84.2513 4.06667 85.6646 5.24 86.6513 6.76C87.6379 8.28 88.1313 10.08 88.1313 12.16C88.1313 14.2133 87.6379 16.0133 86.6513 17.56C85.6646 19.08 84.2513 20.2533 82.4113 21.08C80.5979 21.88 78.4513 22.28 75.9713 22.28H70.3313V30H63.8513V2H75.9713ZM75.6113 17C77.5579 17 79.0379 16.5867 80.0513 15.76C81.0646 14.9067 81.5713 13.7067 81.5713 12.16C81.5713 10.5867 81.0646 9.38667 80.0513 8.56C79.0379 7.70667 77.5579 7.28 75.6113 7.28H70.3313V17H75.6113ZM93.1481 0.319998H98.8681V37.76H93.1481V0.319998ZM127.172 24.8V30H105.492V2H126.652V7.2H111.932V13.28H124.932V18.32H111.932V24.8H127.172ZM138.128 7.28H129.168V2H153.568V7.28H144.608V30H138.128V7.28ZM166.059 30.48C163.846 30.48 161.699 30.1867 159.619 29.6C157.566 28.9867 155.912 28.2 154.659 27.24L156.859 22.36C158.059 23.24 159.486 23.9467 161.139 24.48C162.792 25.0133 164.446 25.28 166.099 25.28C167.939 25.28 169.299 25.0133 170.179 24.48C171.059 23.92 171.499 23.1867 171.499 22.28C171.499 21.6133 171.232 21.0667 170.699 20.64C170.192 20.1867 169.526 19.8267 168.699 19.56C167.899 19.2933 166.806 19 165.419 18.68C163.286 18.1733 161.539 17.6667 160.179 17.16C158.819 16.6533 157.646 15.84 156.659 14.72C155.699 13.6 155.219 12.1067 155.219 10.24C155.219 8.61333 155.659 7.14667 156.539 5.84C157.419 4.50667 158.739 3.45333 160.499 2.68C162.286 1.90667 164.459 1.52 167.019 1.52C168.806 1.52 170.552 1.73333 172.259 2.16C173.966 2.58667 175.459 3.2 176.739 4L174.739 8.92C172.152 7.45333 169.566 6.72 166.979 6.72C165.166 6.72 163.819 7.01333 162.939 7.6C162.086 8.18667 161.659 8.96 161.659 9.92C161.659 10.88 162.152 11.6 163.139 12.08C164.152 12.5333 165.686 12.9867 167.739 13.44C169.872 13.9467 171.619 14.4533 172.979 14.96C174.339 15.4667 175.499 16.2667 176.459 17.36C177.446 18.4533 177.939 19.9333 177.939 21.8C177.939 23.4 177.486 24.8667 176.579 26.2C175.699 27.5067 174.366 28.5467 172.579 29.32C170.792 30.0933 168.619 30.48 166.059 30.48Z" fill="white"/>
</svg>
